<?xml version="1.0" standalone="no"?>
<!DOCTYPE svg PUBLIC "-//W3C//DTD SVG 20010904//EN"
 "http://www.w3.org/TR/2001/REC-SVG-20010904/DTD/svg10.dtd">
<svg version="1.0" xmlns="http://www.w3.org/2000/svg"
 width="103.000000pt" height="103.000000pt" viewBox="0 0 103.000000 103.000000"
 preserveAspectRatio="xMidYMid meet">

<g transform="translate(0.000000,103.000000) scale(0.100000,-0.100000)"
fill="#000000" stroke="none">
<path d="M334 925 c-17 -13 -16 -14 14 -4 33 11 41 19 19 19 -7 0 -22 -7 -33
-15z"/>
<path d="M285 900 c-3 -6 1 -7 9 -4 18 7 21 14 7 14 -6 0 -13 -4 -16 -10z"/>
<path d="M202 861 c-17 -14 -38 -42 -46 -61 -8 -19 -24 -48 -36 -65 -11 -16
-20 -36 -20 -44 0 -8 -8 -23 -17 -33 -34 -38 -18 -287 23 -341 14 -19 15 -19
9 -2 -21 57 -26 110 -21 210 5 107 21 185 38 185 4 0 8 9 8 20 0 11 5 20 10
20 6 0 10 6 10 13 1 15 24 42 72 84 31 26 34 32 18 36 -10 3 -31 -7 -48 -22z"/>
<path d="M355 793 c-17 -20 -34 -43 -39 -52 -5 -9 -16 -21 -24 -27 -11 -8 -17
-37 -20 -97 -4 -75 -1 -91 20 -138 25 -53 107 -155 108 -133 0 6 -12 21 -26
35 -37 34 -55 74 -70 151 -11 57 -11 77 2 123 16 65 38 111 67 142 11 13 19
25 16 27 -2 2 -18 -12 -34 -31z"/>
<path d="M120 611 c0 -11 -4 -22 -9 -26 -41 -25 50 -332 113 -384 19 -16 21
-35 4 -26 -7 4 5 -10 27 -29 43 -38 108 -64 245 -95 l85 -20 81 27 c104 34
182 94 261 199 65 88 74 109 80 208 6 85 -2 82 -21 -11 -8 -38 -24 -89 -36
-114 -20 -44 -21 -44 -15 -10 5 26 4 31 -4 20 -6 -8 -11 -25 -11 -37 0 -12 -5
-25 -10 -28 -6 -4 -8 -11 -5 -16 4 -5 2 -9 -3 -9 -5 0 -20 -16 -33 -36 -44
-66 -221 -167 -262 -150 -7 2 -3 5 7 5 11 1 53 20 93 43 98 56 174 152 208
266 13 46 -11 20 -33 -35 -54 -131 -136 -199 -277 -228 -98 -20 -161 -14 -241
24 -64 31 -145 103 -186 166 -42 64 -61 147 -55 237 3 43 3 78 1 78 -2 0 -4
-9 -4 -19z"/>
<path d="M992 570 c0 -14 2 -19 5 -12 2 6 2 18 0 25 -3 6 -5 1 -5 -13z"/>
<path d="M552 515 c0 -16 2 -22 5 -12 2 9 2 23 0 30 -3 6 -5 -1 -5 -18z"/>
<path d="M151 483 c2 -24 2 -25 6 -5 5 26 20 29 26 5 4 -14 5 -12 6 5 1 16 -5
22 -19 22 -15 0 -20 -6 -19 -27z"/>
<path d="M202 460 c0 -14 2 -19 5 -12 2 6 2 18 0 25 -3 6 -5 1 -5 -13z"/>
<path d="M220 402 c0 -8 9 -25 20 -39 26 -33 26 -23 0 19 -11 18 -20 27 -20
20z"/>
<path d="M51 355 c1 -19 18 -51 18 -35 0 8 -4 22 -9 30 -5 8 -9 11 -9 5z"/>
<path d="M320 345 c0 -3 16 -19 35 -36 19 -17 35 -37 35 -45 0 -8 9 -14 19
-14 11 0 26 -7 34 -15 9 -8 41 -17 74 -20 40 -3 49 -2 27 4 -47 12 -117 50
-173 92 -28 21 -51 36 -51 34z"/>
<path d="M86 254 c27 -89 134 -179 234 -198 26 -5 20 0 -25 19 -70 30 -143 98
-186 173 -17 28 -32 52 -34 52 -2 0 3 -21 11 -46z"/>
<path d="M257 278 c11 -13 25 -33 31 -44 6 -12 26 -28 44 -36 41 -19 108 -30
108 -17 0 5 -7 9 -15 9 -24 0 -87 35 -134 74 -49 41 -64 47 -34 14z"/>
<path d="M796 271 c-10 -11 -44 -32 -77 -48 -64 -31 -74 -43 -32 -43 30 0 82
37 113 80 24 34 22 40 -4 11z"/>
</g>
</svg>
